<svg width="226" height="42" viewBox="0 0 226 42" fill="none" xmlns="http://www.w3.org/2000/svg">
<g clip-path="url(#clip0_3_6)">
<path d="M10.89 30.78H18.81V36H7.38C5.4 34.14 3.9 31.785 2.88 28.935C1.86 26.085 1.35 23.16 1.35 20.16C1.35 17.13 1.92 14.22 3.06 11.43C4.2 8.64 5.895 6.33 8.145 4.5H18.81V9.9H10.89C10.08 10.83 9.375 12.33 8.775 14.4C8.205 16.47 7.92 18.45 7.92 20.34C7.92 22.23 8.205 24.21 8.775 26.28C9.375 28.35 10.08 29.85 10.89 30.78ZM22.1112 4.5H34.0812C35.9712 5.13 37.5762 6.3 38.8962 8.01C40.2462 9.69 40.9212 11.76 40.9212 14.22C40.9212 18.24 39.3312 21.195 36.1512 23.085L40.6962 36H34.3962L30.5712 24.525H28.1862V36H22.1112V4.5ZM28.1862 9.9V19.485H32.0562C32.5662 19.365 33.1212 18.855 33.7212 17.955C34.3512 17.025 34.6662 15.945 34.6662 14.715C34.6662 13.485 34.3962 12.405 33.8562 11.475C33.3462 10.545 32.8362 10.02 32.3262 9.9H28.1862ZM55.6467 21.6H55.4667H55.6467L58.0317 11.745L59.9667 4.5H65.5917L67.6167 36H61.7217L60.8667 18.81H60.6417L57.4017 31.5H53.7117L50.4717 18.81H50.2467L49.3917 36H43.4967L45.5217 4.5H51.1467L53.0817 11.745L55.4667 21.6H55.6467ZM84.5241 9.9V21.15H88.5291C90.1791 19.8 91.0041 17.82 91.0041 15.21C91.0041 14.1 90.7791 13.05 90.3291 12.06C89.9091 11.07 89.3991 10.35 88.7991 9.9H84.5241ZM78.4491 36V4.5H90.6441C92.6841 5.4 94.2891 6.78 95.4591 8.64C96.6591 10.5 97.2591 12.675 97.2591 15.165C97.2591 17.625 96.6441 19.905 95.4141 22.005C94.1841 24.105 92.3691 25.59 89.9691 26.46H84.5241V36H78.4491ZM106.269 4.5V36H100.329V4.5H106.269ZM120.973 25.605H116.158C115.528 26.385 115.213 27.36 115.213 28.53C115.213 29.7 115.543 30.615 116.203 31.275H120.973V25.605ZM111.298 13.005H122.458C124.258 14.085 125.443 15.33 126.013 16.74C126.583 18.12 126.868 20.01 126.868 22.41V29.16C126.868 31.65 126.928 33.93 127.048 36H121.918L121.108 34.38C119.938 35.46 118.288 36 116.158 36H113.323C110.773 34.32 109.498 31.905 109.498 28.755C109.498 25.575 110.803 23.07 113.413 21.24H117.643C118.813 21.24 119.908 21.6 120.928 22.32V20.07C120.928 18.9 120.418 18.12 119.398 17.73H111.298V13.005ZM131.386 25.965V17.73H128.281V13.005H131.386V6.75H137.371V13.005H141.061V17.73H137.371V27.405C137.371 29.235 137.686 30.525 138.316 31.275H141.061V36H134.671C133.081 34.53 132.121 32.94 131.791 31.23C131.521 29.79 131.386 28.035 131.386 25.965ZM150.084 4.5H156.564V9.225H152.514C151.494 9.855 150.984 11.115 150.984 13.005H155.664V17.73H150.984V36H144.999V17.73H142.524V13.005H144.999C144.999 9.105 146.694 6.27 150.084 4.5ZM170.786 36H160.976C157.976 33.21 156.476 29.4 156.476 24.57C156.476 22.14 156.806 20.025 157.466 18.225C158.156 16.425 159.236 14.685 160.706 13.005H171.236C172.796 14.805 173.861 16.56 174.431 18.27C175.001 19.95 175.286 22.05 175.286 24.57C175.286 29.4 173.786 33.21 170.786 36ZM164.171 31.275H167.591C168.671 29.175 169.211 26.79 169.211 24.12C169.211 21.45 168.656 19.32 167.546 17.73H164.171C163.091 19.26 162.551 21.435 162.551 24.255C162.551 27.045 163.091 29.385 164.171 31.275ZM178.552 36V13.005H182.827L183.952 15.435C185.152 13.815 186.667 13.005 188.497 13.005H190.252V19.035H184.537V36H178.552ZM202.823 13.005H206.018L207.143 14.58C207.773 14.01 208.373 13.605 208.943 13.365C209.543 13.125 210.428 13.005 211.598 13.005H216.593C217.913 14.685 218.813 16.365 219.293 18.045C219.773 19.725 220.013 21.825 220.013 24.345V36H214.028V23.895C214.028 21.135 213.608 19.08 212.768 17.73H208.448C209.108 19.02 209.438 20.775 209.438 22.995V36H203.453V23.895C203.453 21.045 203.063 18.99 202.283 17.73H198.818V36H192.833V13.005H197.513L198.323 14.625C198.983 14.025 199.598 13.605 200.168 13.365C200.768 13.125 201.653 13.005 202.823 13.005Z" fill="white"/>
</g>
<defs>
<clipPath id="clip0_3_6">
<rect width="226" height="42" fill="white"/>
</clipPath>
</defs>
</svg>
